<svg width="64" height="62" viewBox="0 0 64 62" fill="none" xmlns="http://www.w3.org/2000/svg">
<mask id="mask0_0_279" style="mask-type:luminance" maskUnits="userSpaceOnUse" x="0" y="0" width="64" height="62">
<path fill-rule="evenodd" clip-rule="evenodd" d="M0 0H64V62H0V0Z" fill="white"/>
</mask>
<g mask="url(#mask0_0_279)">
<path fill-rule="evenodd" clip-rule="evenodd" d="M44.3442 37.1718C44.1658 37.2767 44.0873 37.304 44.0339 37.3569C40.6384 40.7167 37.2508 44.0847 33.8442 47.4332C33.4119 47.858 33.6361 48.0763 33.9483 48.3886C37.1955 51.6363 40.4319 54.8945 43.6775 58.1437C43.8535 58.32 43.983 58.5947 44.3442 58.5799V37.1718ZM21.2008 60.1095C21.2716 60.1438 21.3169 60.1846 21.3624 60.1846C28.3026 60.1895 35.2429 60.1918 42.1831 60.1913C42.364 60.1913 42.6062 60.2432 42.6818 60.0312C42.7737 59.7739 42.5003 59.6698 42.3599 59.5281C39.0747 56.2165 35.7799 52.9144 32.5018 49.5959C32.1432 49.2328 31.9452 49.2766 31.6003 49.6262C30.0746 51.1725 28.5001 52.6702 26.97 54.2123C25.0435 56.1539 23.1429 58.1218 21.2008 60.1095V60.1095ZM19.6197 58.8407C20.1497 58.4925 20.4126 58.076 20.7542 57.7392C23.9071 54.63 27.0582 51.5192 30.2277 48.4272C30.6471 48.0181 30.6732 47.7429 30.2488 47.3228C27.5806 44.6821 24.9326 42.0209 22.2753 39.369C21.4354 38.5309 20.5875 37.7006 19.6197 36.7449V58.8407ZM43.5195 35.2208H20.7974C21.0708 35.5255 21.2399 35.7327 21.4278 35.921C24.8359 39.3347 28.2526 42.7396 31.6472 46.1666C32.0472 46.5704 32.2363 46.3962 32.545 46.088C35.3702 43.2671 38.208 40.4591 41.0441 37.6495C41.8351 36.866 42.6333 36.0898 43.5195 35.2208V35.2208ZM6.71766 46.136C6.71766 50.4482 6.71766 54.7604 6.71766 59.0727C6.71766 60.1973 6.71766 60.1982 7.87017 60.1979C10.7653 60.1973 13.6605 60.1953 16.5556 60.1945C17.6638 60.194 17.6651 60.1947 17.6651 59.1078C17.6651 51.1302 17.6637 43.1526 17.6648 35.1749C17.665 33.8073 18.1 33.3557 19.4218 33.3553C27.7322 33.3534 36.0424 33.3524 44.3527 33.3555C45.9363 33.3562 46.2714 33.71 46.2712 35.3105C46.2701 43.2877 46.2785 51.2651 46.2574 59.2423C46.2554 59.962 46.4311 60.2234 47.1955 60.213C50.3046 60.171 53.4144 60.1971 56.5241 60.1948C57.5822 60.1942 57.5859 60.1898 57.5861 59.1261C57.5869 51.8226 57.5859 44.5189 57.5856 37.2155C57.5856 35.8141 57.5715 34.4124 57.5896 33.0112C57.6049 31.8145 58.0235 31.4098 59.1856 31.4054C59.7754 31.4032 60.3652 31.4093 60.9549 31.4049C61.7864 31.3989 61.8149 31.3573 61.3911 30.6152C58.1415 24.9263 54.8859 19.241 51.6386 13.5508C51.4458 13.2134 51.2116 12.937 50.8768 12.7425C44.8805 9.25643 38.8813 5.7756 32.8956 2.27142C32.3667 1.96186 31.967 1.93543 31.4249 2.25244C25.391 5.78063 19.3425 9.28351 13.2973 12.7922C12.9608 12.9875 12.733 13.2761 12.5405 13.6085C11.0737 16.1417 9.59847 18.6702 8.13195 21.2037C6.3013 24.3666 4.48854 27.5401 2.63823 30.6913C2.27974 31.3018 2.44802 31.427 3.0562 31.4091C3.69887 31.3905 4.34283 31.4056 4.98614 31.41C6.37222 31.4197 6.71604 31.773 6.71653 33.1993C6.71814 37.5115 6.71717 41.8238 6.71766 46.136V46.136ZM32.142 61.9987C23.8041 61.9987 15.466 61.9987 7.12805 61.9985C6.85999 61.9985 6.5916 62.004 6.32371 61.994C5.31223 61.9557 4.93295 61.568 4.9323 60.5394C4.9294 55.9303 4.93327 51.321 4.93359 46.7119C4.93391 42.5338 4.91393 38.3556 4.94923 34.1778C4.95584 33.3918 4.72324 33.1278 3.94871 33.188C3.14921 33.2503 2.34115 33.2062 1.53681 33.1981C0.177485 33.1846 -0.39152 32.2149 0.286289 31.0286C1.83163 28.3237 3.39067 25.6267 4.95261 22.9315C6.91882 19.5384 8.93645 16.1745 10.8427 12.7476C11.5766 11.4285 12.8313 10.909 13.9927 10.229C19.5868 6.95398 25.2077 3.72498 30.7954 0.438897C31.7882 -0.145025 32.5859 -0.151836 33.5995 0.451707C39.6969 4.08334 45.8281 7.65741 51.9642 11.2229C52.5819 11.5819 52.9948 12.0734 53.3267 12.655C56.0947 17.5076 58.8512 22.3665 61.6089 27.2247C62.3251 28.4863 63.0375 29.75 63.7442 31.0169C64.3714 32.1414 63.8001 33.1692 62.5295 33.1968C61.7791 33.2131 61.0256 33.2399 60.2783 33.1904C59.6303 33.1475 59.4568 33.3956 59.4586 34.0233C59.4765 39.899 59.4668 45.7748 59.466 51.6505C59.4655 54.5346 59.4688 57.4186 59.4672 60.3025C59.4665 61.6105 59.0969 61.9935 57.7995 61.9941C49.247 61.9977 40.6945 61.9959 32.142 61.9959V61.9987Z" fill="#F9FAF9"/>
</g>
<path fill-rule="evenodd" clip-rule="evenodd" d="M31.9832 21.171C32.7796 21.171 33.5763 21.1548 34.3721 21.1771C34.8531 21.1906 35.0697 21.0467 35.0623 20.5714C35.0412 19.1993 35.0433 17.8268 35.0618 16.4547C35.0679 16.0089 34.9188 15.8135 34.4046 15.82C32.8121 15.8404 31.2192 15.8361 29.6268 15.8214C29.1531 15.817 28.9215 15.9479 28.9284 16.4261C28.9481 17.7982 28.9512 19.1709 28.9266 20.5427C28.9174 21.0634 29.1721 21.1949 29.6768 21.1793C30.4449 21.1556 31.2144 21.173 31.9832 21.171M31.955 14.0028C33.0533 14.0029 34.1517 13.9974 35.2498 14.0044C36.345 14.0113 36.9167 14.3886 36.9486 15.3632C37.0166 17.4444 37.0158 19.5297 36.954 21.611C36.9266 22.5338 36.3318 22.9772 35.3274 22.9857C33.0761 23.0048 30.8243 23.0045 28.573 22.9862C27.5187 22.9776 27.0119 22.4872 27.0075 21.5208C26.9982 19.488 26.9969 17.4551 27.0073 15.4223C27.0126 14.4093 27.4585 14.0136 28.5778 14.0046C29.7035 13.9956 30.8293 14.0026 31.955 14.0028" fill="#F9F9F8"/>
</svg>
