<svg width="49" height="69" viewBox="0 0 49 69" fill="none" xmlns="http://www.w3.org/2000/svg">
<path fill-rule="evenodd" clip-rule="evenodd" d="M12.9399 65.5093C13.4509 65.1911 13.6624 65.1365 13.7236 65.0102C16.6209 59.0207 19.5037 53.0244 22.3913 47.0303C23.1686 45.4166 22.2844 44.82 20.8642 44.5562C18.544 44.125 16.2756 43.5026 14.2432 42.2915C12.721 41.3844 11.8787 41.8612 11.1872 43.3187C8.77838 48.3948 6.30428 53.4404 3.91196 58.5243C3.57713 59.2356 2.90896 59.9978 3.51705 60.9576C4.98066 60.9882 6.18898 60.2067 7.45476 59.7183C9.31423 59.001 10.4308 59.4828 11.12 61.3146C11.6315 62.6739 12.2727 63.9851 12.9399 65.5093M35.6263 65.1033C36.8313 64.1554 36.9973 62.8985 37.3491 61.7732C38.0347 59.5804 39.2414 58.8938 41.4714 59.8406C42.8442 60.4234 44.2407 61.1911 46.2201 61.1579C43.4651 54.5413 40.2438 48.5401 37.2346 42.4417C36.9366 41.8378 36.3546 41.4498 35.7289 41.7964C32.6761 43.4881 29.285 44.2345 25.9827 45.0436C26.256 47.1689 34.0096 63.2119 35.6263 65.1033M45.0479 22.2206C45.0541 11.3675 35.6121 2.096 24.4139 1.95886C13.4352 1.82433 3.8414 11.2592 3.81726 22.2141C3.79311 33.2043 13.2181 42.7804 24.1106 42.8328C35.2568 42.8864 45.0417 33.2536 45.0479 22.2206M24.0187 48.2729C21.3729 53.7526 18.7491 59.1793 16.1339 64.6103C15.7214 65.4669 15.3646 66.3499 14.951 67.2059C14.581 67.9719 14.3184 68.9647 13.2839 68.999C12.0762 69.039 11.8409 67.9154 11.452 67.0814C10.8675 65.8285 10.2918 64.5661 9.81657 63.27C9.20717 61.6077 8.24047 61.1343 6.6189 61.9988C5.47215 62.6102 4.26851 63.1172 3.08377 63.6565C2.22413 64.0478 1.29225 64.6731 0.437286 63.8415C-0.420854 63.0067 0.180874 62.0592 0.578407 61.2099C3.47363 55.0274 6.32187 48.8218 9.32452 42.691C10.263 40.7747 10.2457 39.4117 8.5025 37.9732C0.720277 31.5517 0.236461 17.5429 5.93669 9.4384C12.0193 0.790005 23.6679 -2.41565 33.5728 1.92756C48.0204 8.26284 51.602 26.5982 40.4809 37.7086C38.8794 39.3089 38.5374 40.5843 39.5721 42.644C42.559 48.5904 45.3591 54.6304 48.1765 60.6597C48.6242 61.6174 49.5548 62.7565 48.5519 63.763C47.5471 64.7717 46.4172 63.8135 45.4243 63.4202C39.7703 61.1805 39.7866 61.1673 37.5075 66.6491C37.1234 67.573 36.9789 68.8866 35.7158 68.9572C34.2688 69.0381 34.0809 67.603 33.6199 66.6409C30.9315 61.0282 28.2854 55.3958 25.6191 49.7727C25.3647 49.2361 25.1866 48.6234 24.0187 48.2729" fill="#FDFDFD"/>
<path fill-rule="evenodd" clip-rule="evenodd" d="M25 28.202C25.2132 28.202 25.4261 28.2681 25.607 28.3999L31.6797 32.8255L29.3605 25.6645C29.2221 25.2378 29.3737 24.7701 29.7358 24.5063L35.8083 20.0807L28.3019 20.0806C27.8544 20.0806 27.4579 19.7916 27.3197 19.3645L25 12.2035L22.6803 19.3645C22.5421 19.7916 22.1456 20.0806 21.6981 20.0806H14.1917L20.2642 24.5063C20.6263 24.7701 20.7779 25.2378 20.6395 25.6645L18.3201 32.8255L24.393 28.3999C24.5739 28.2681 24.7868 28.202 25 28.202M31.7912 35C31.3805 35 30.9698 34.8695 30.6115 34.6084L25 30.5188L19.3885 34.6082C18.6719 35.1305 17.7456 35.1305 17.029 34.6082C16.3122 34.0858 16.026 33.2023 16.2996 32.3572L18.443 25.7402L12.8317 21.6507C12.115 21.1283 11.8286 20.2448 12.1022 19.3996C12.3761 18.5545 13.1256 18.0084 14.0114 18.0084H20.9476L23.091 11.3914C23.3646 10.5461 24.1138 10 24.9998 10C25.8857 9.99981 26.6352 10.5459 26.909 11.3912V11.3914L29.0524 18.0084H35.9886C36.8744 18.0084 37.6239 18.5545 37.8978 19.3996C38.1714 20.2448 37.885 21.1283 37.1683 21.6509L31.557 25.7402L33.7002 32.3572C33.974 33.2023 33.6878 34.0858 32.971 34.6082C32.6127 34.8695 32.202 35 31.7912 35" fill="#FDFDFD"/>
</svg>
