<svg width="56" height="69" viewBox="0 0 56 69" fill="none" xmlns="http://www.w3.org/2000/svg">
<mask id="mask0_0_251" style="mask-type:luminance" maskUnits="userSpaceOnUse" x="0" y="0" width="56" height="69">
<path fill-rule="evenodd" clip-rule="evenodd" d="M0 0H56V69H0V0Z" fill="white"/>
</mask>
<g mask="url(#mask0_0_251)">
<path fill-rule="evenodd" clip-rule="evenodd" d="M53.8208 63.89C53.4866 63.756 53.2496 63.5665 53.0382 63.5917C51.8227 63.7375 50.6101 63.9156 49.402 64.1163C40.5673 65.5856 31.9022 65.4611 23.9378 60.7351C18.1492 57.3002 11.9918 56.6423 5.49232 57.4499C4.0434 57.6298 3.56157 58.1807 3.66543 59.6444C4.11306 65.9479 4.65007 66.4832 11.0117 66.4734C11.7997 66.4723 12.5878 66.4404 13.3753 66.4577C14.9695 66.4923 15.7185 65.7898 15.8836 64.1377C16.2449 60.5169 16.8378 60.2324 20.0776 61.8338C20.7833 62.1825 21.469 62.5745 22.1484 62.9732C31.4088 68.408 41.2826 67.5837 51.2327 65.7786C52.2604 65.5922 53.4687 65.3137 53.8208 63.89M40.6024 63.2719C44.3881 63.5004 48.1098 63.0632 51.7617 61.9846C53.7294 61.4037 53.8063 60.2796 52.6901 58.8629C51.4534 57.2935 49.8276 56.323 47.8393 55.9502C44.8971 55.3986 42.0552 54.4625 39.3191 53.2874C34.8296 51.3591 31.1142 48.5159 29.5151 43.6466C28.5034 40.5655 29.0894 37.3964 29.3089 34.2565C29.7489 27.9635 30.3239 21.6739 30.5304 15.3727C30.6805 10.7874 26.9604 6.05562 22.9775 5.01769C21.0277 4.50961 19.8936 4.91397 20.0118 7.20924C20.0745 8.43158 20.0785 9.67767 19.9148 10.8866C19.6325 12.9697 18.259 14.2943 16.2673 14.4508C14.1676 14.6158 12.8153 13.3237 12.4948 11.2027C12.2993 9.90832 12.2064 8.58716 12.2021 7.2776C12.1943 5.03111 10.9527 4.4728 9.10431 5.07644C5.74798 6.17258 3.37974 8.36575 2.25849 11.799C1.27927 14.7977 1.59192 17.8785 1.65525 20.9384C1.86152 30.8926 4.00649 40.8014 2.35402 50.8004C2.32579 50.9705 2.35456 51.1508 2.36198 51.3259C2.51306 54.918 2.9862 55.5766 6.56309 55.352C13.2519 54.9318 19.4572 56.3478 25.2333 59.6604C30.0075 62.3984 35.0798 63.7452 40.6024 63.2719M18.0313 4.71904C18.1422 3.06042 17.6006 2.07925 15.7055 2.14797C13.831 2.21597 13.704 3.41764 13.7279 4.81025C13.7607 6.71258 13.7932 8.6149 13.8258 10.517C14.0702 11.9106 14.8226 12.7532 16.312 12.5898C17.8919 12.4163 18.113 11.1281 18.2475 9.90052C18.4369 8.16956 18.4856 6.42988 18.0313 4.71904M18.1621 63.2951C16.5293 68.014 16.5293 68.0138 11.2493 68.0136C10.0215 68.0136 8.79365 68.0196 7.56601 68.0147C3.56375 67.9988 3.21129 67.6523 2.70196 63.56C2.46385 61.6466 2.21886 59.726 1.819 57.8423C0.95594 53.7784 0.557703 49.7781 1.50996 45.6164C2.32109 42.0718 1.36214 38.4512 0.998821 34.8852C0.366999 28.6833 -0.0641678 22.477 0.00784401 16.2429C0.0827508 9.75492 3.14072 5.47228 9.20365 3.31845C10.5149 2.85262 11.7098 2.47364 12.5891 1.11458C13.583 -0.421279 18.4333 -0.344758 19.5661 1.18911C20.4261 2.3536 21.4695 2.87547 22.7232 3.32498C29.828 5.87211 32.6714 10.9279 31.8962 18.481C31.1989 25.2772 31.0466 32.1277 30.5514 38.9469C30.1184 44.9092 33.5569 48.4107 38.1803 51.0784C40.7624 52.5684 43.6099 53.4611 46.5883 53.9945C50.1581 54.6341 53.2373 56.1667 55.0229 59.6107C56.9578 63.3421 56.0428 65.8986 52.0652 67.0452C41.7456 70.0201 31.6457 69.8929 21.9687 64.6128C20.8327 63.9929 19.7004 63.267 18.1621 63.2951" fill="#FDFDFD"/>
</g>
</svg>
