<svg width="65" height="63" viewBox="0 0 65 63" fill="none" xmlns="http://www.w3.org/2000/svg">
<mask id="mask0_0_258" style="mask-type:luminance" maskUnits="userSpaceOnUse" x="0" y="0" width="65" height="62">
<path fill-rule="evenodd" clip-rule="evenodd" d="M0.0500488 0H64.05V62H0.0500488V0Z" fill="white"/>
</mask>
<g mask="url(#mask0_0_258)">
<path fill-rule="evenodd" clip-rule="evenodd" d="M29.8996 59.7517C31.0697 59.7537 32.24 59.7559 33.4101 59.7579C34.0111 59.8937 34.5748 59.6258 35.1624 59.5944C37.7968 59.4534 40.3269 58.7792 42.7632 57.8276C48.7631 55.4841 53.455 51.4799 56.8417 46.0034C59.9381 40.9968 61.5998 35.5034 61.7923 29.5856C61.794 28.2794 61.7958 26.9733 61.7976 25.667C61.8174 22.1768 60.9658 18.8331 60.0886 15.4966C59.4667 13.131 58.4486 10.911 57.5093 8.66487C57.2313 7.99968 57.2325 7.43547 57.8125 6.9788C58.2626 6.6243 58.2463 6.22618 58.0583 5.75796C57.6519 4.74584 57.1144 3.80064 56.6261 2.82954C56.3519 2.28385 56.0378 2.22131 55.5328 2.43202C53.6207 3.22985 51.8231 4.25571 49.9919 5.21585C49.4145 5.51877 49.4026 5.87029 49.6937 6.4114C50.3004 7.53943 50.8909 8.68081 51.4086 9.85205C53.1773 13.8529 54.1774 18.0422 54.5663 22.4106C55.0164 27.464 54.3536 32.3193 52.3481 36.9684C50.4115 41.4582 47.3719 45.0108 43.1492 47.4716C39.2367 49.7516 34.9413 50.606 30.4877 50.3618C28.4087 50.2479 26.3095 49.7787 24.333 48.9876C18.2784 46.5647 13.8382 42.4797 11.5506 36.2433C10.4932 33.3609 9.95434 30.3795 9.7022 27.2945C9.44591 24.1584 9.66562 21.0718 10.2652 18.053C11.0663 14.0186 12.3491 10.096 14.4841 6.52771C14.8533 5.91072 14.8946 5.51957 14.1742 5.11488C12.4267 4.13343 10.6231 3.27227 8.7957 2.4619C8.17713 2.18766 7.61452 2.2486 7.29396 3.03288C6.98289 3.79347 6.51402 4.48853 6.19919 5.24812C5.935 5.88502 5.56895 6.55021 6.4009 7.15884C6.89232 7.51832 6.87136 8.11022 6.6216 8.69773C5.96426 10.2434 5.36289 11.8108 4.78763 13.3913C3.39367 17.2215 2.53364 21.175 2.31947 25.2271C1.95165 32.1896 3.25484 38.8184 6.76853 44.913C10.1339 50.7506 14.8661 55.0569 21.0509 57.6978C23.874 58.9033 26.8389 59.5518 29.8996 59.7517M0.0500488 24.8911C0.525053 19.4033 1.82014 14.132 4.13979 9.12851C4.39232 8.58382 4.58038 8.07138 3.99721 7.52589C3.32366 6.89615 3.64303 6.08139 3.92978 5.3939C4.53846 3.93507 5.23475 2.51228 6.06887 1.16657C6.76259 0.0471044 7.50219 -0.262786 8.74923 0.220173C11.3507 1.22771 13.9001 2.36232 16.2478 3.89703C17.322 4.59946 17.5224 5.28257 16.9485 6.40523C15.7202 8.80727 14.5039 11.2113 13.7051 13.8034C12.7336 16.9568 12.0189 20.1567 11.9584 23.4765C11.958 24.4575 11.9576 25.4386 11.9572 26.4194C12.1413 33.7881 14.4803 40.1474 20.6481 44.5767C23.7174 46.7809 27.1935 47.9526 31.0141 48.0906C35.1531 48.2402 39.0239 47.4314 42.5603 45.2104C46.6742 42.6263 49.3648 38.9293 50.9829 34.367C52.3096 30.6264 52.5704 26.7512 52.3369 22.8551C52.0052 17.3245 50.3896 12.1354 47.7403 7.27555C47.5352 6.89954 47.3238 6.52054 47.1775 6.11983C46.8704 5.27998 47.0335 4.51422 47.8042 4.03246C50.2557 2.49974 52.8237 1.19206 55.53 0.172972C56.447 -0.172368 57.2168 0.085741 57.7808 0.883767C58.8898 2.45313 59.7257 4.1633 60.3386 5.98719C60.5468 6.60657 60.5063 7.18194 60.0147 7.62945C59.5774 8.02737 59.6581 8.42867 59.877 8.8718C61.374 11.9008 62.3387 15.1172 63.0875 18.3963C63.7712 21.3897 64.013 24.4294 64.0474 27.5116C64.1032 32.4927 63.2892 37.2867 61.4132 41.8799C58.4678 49.0904 53.6557 54.6497 46.7974 58.3666C43.6563 60.069 40.2842 61.0387 36.8047 61.7084C36.0681 61.8502 35.2814 61.5457 34.5875 61.9879C32.9634 61.9918 31.3392 61.996 29.7149 62C28.574 61.5368 27.3394 61.6646 26.1541 61.4583C21.7859 60.6981 17.8716 58.9136 14.2604 56.417C8.26868 52.2747 4.39232 46.5511 2.03095 39.6943C0.942115 36.5323 0.3977 33.2752 0.0522241 29.969C0.0516309 28.2764 0.0508398 26.5837 0.0500488 24.8911" fill="#FCFCFC"/>
</g>
<mask id="mask1_0_258" style="mask-type:luminance" maskUnits="userSpaceOnUse" x="0" y="26" width="1" height="5">
<path fill-rule="evenodd" clip-rule="evenodd" d="M0.0058673 26H0.494133V31H0.0058673V26Z" fill="white"/>
</mask>
<g mask="url(#mask1_0_258)">
<path fill-rule="evenodd" clip-rule="evenodd" d="M0.476975 26C0.478975 27.6667 0.480475 29.3335 0.482475 31C-0.186025 29.3335 -0.117525 27.6667 0.476975 26" fill="#9C9E9B"/>
</g>
<mask id="mask2_0_258" style="mask-type:luminance" maskUnits="userSpaceOnUse" x="30" y="61" width="6" height="2">
<path fill-rule="evenodd" clip-rule="evenodd" d="M30.05 61.95H35.05V62.45H30.05V61.95Z" fill="white"/>
</mask>
<g mask="url(#mask2_0_258)">
<path fill-rule="evenodd" clip-rule="evenodd" d="M30.05 61.9776C31.7169 61.9681 33.3834 61.9591 35.05 61.95C33.3841 62.6385 31.7173 62.5856 30.05 61.9776" fill="#959695"/>
</g>
<path fill-rule="evenodd" clip-rule="evenodd" d="M12 27C12.0002 25.9999 12.0004 24.9999 12.0007 24C12.1331 25.0001 12.1333 26.0001 12 27" fill="#A9AC9F"/>
<path fill-rule="evenodd" clip-rule="evenodd" d="M62.0972 30C61.9699 28.6663 61.9644 27.3329 62.1 26C62.099 27.3333 62.0981 28.6667 62.0972 30" fill="#A9AB9D"/>
<path fill-rule="evenodd" clip-rule="evenodd" d="M30.05 60.047C31.0504 59.9165 32.0503 59.9179 33.05 60.05C32.05 60.049 31.0499 60.048 30.05 60.047" fill="#A8A9A0"/>
<path fill-rule="evenodd" clip-rule="evenodd" d="M10.05 37.427C10.052 38.5228 9.70382 38.9951 8.89002 39C7.92119 39.0056 7.05138 37.8364 7.05005 36.5263C7.04888 35.5715 7.53313 34.9834 8.30659 35.0004C9.26491 35.0211 10.0477 36.1105 10.05 37.427" fill="#FCFDFD"/>
<path fill-rule="evenodd" clip-rule="evenodd" d="M57.0441 36.4893C57.0975 37.2592 56.788 37.8738 56.3207 38.4124C55.9425 38.8484 55.4986 39.1325 54.9194 38.9372C54.3682 38.7514 54.196 38.2296 54.0811 37.7049C53.8782 36.7792 54.7058 35.319 55.5469 35.0649C56.4325 34.7974 57.0377 35.3731 57.0441 36.4893" fill="#FCFCFC"/>
<path fill-rule="evenodd" clip-rule="evenodd" d="M6.34119 22.0081C7.52384 22.0392 8.15466 23.5351 8.03582 24.4143C7.93573 25.1542 7.69498 25.8921 6.75416 25.9932C6.05589 26.0686 5.50677 25.5085 5.19659 24.5547C4.91364 23.6843 5.01932 22.9342 5.69955 22.2903C5.90333 22.0974 6.12695 21.9653 6.34119 22.0081" fill="#FCFCFC"/>
<path fill-rule="evenodd" clip-rule="evenodd" d="M58.677 22.0003C59.4517 22.0197 60.1839 23.1238 60.0292 24.0595C59.9961 24.2601 59.917 24.4554 59.843 24.6467C59.4685 25.6161 58.8641 26.106 58.2073 25.9807C57.5408 25.8537 57.0097 24.9435 57.0525 24.0013C57.1001 22.9499 57.8871 21.9805 58.677 22.0003" fill="#FCFCFC"/>
<path fill-rule="evenodd" clip-rule="evenodd" d="M14.5232 46.0002C15.6332 45.9829 17.0644 47.3683 17.0499 48.4463C17.0391 49.2611 16.3114 49.9902 15.4995 49.9999C14.4586 50.0121 13.0586 48.5588 13.0501 47.4571C13.044 46.6399 13.6775 46.0133 14.5232 46.0002" fill="#FCFCFC"/>
<path fill-rule="evenodd" clip-rule="evenodd" d="M48.5589 49.9999C47.7845 50.01 47.0558 49.2446 47.0501 48.4153C47.0424 47.3151 48.3629 46.0142 49.5021 46.0001C50.2615 45.9906 51.012 46.692 51.0488 47.4457C51.0988 48.4715 49.6223 49.9862 48.5589 49.9999" fill="#FBFCFB"/>
</svg>
