<svg width="64" height="55" viewBox="0 0 64 55" fill="none" xmlns="http://www.w3.org/2000/svg">
<path fill-rule="evenodd" clip-rule="evenodd" d="M25.3894 37.0625H25.3844C25.3844 34.5951 25.3722 32.1276 25.3932 29.6604C25.3983 29.0621 25.2223 28.7527 24.59 28.9214C23.8329 29.1234 23.0786 29.3392 22.3332 29.5801C20.5393 30.16 18.751 30.7578 16.9608 31.349C15.0296 31.9867 13.0981 32.6227 11.1687 33.2656C10.8466 33.3728 10.6091 33.4869 10.7937 33.9492C12.5185 38.2736 15.2157 41.7489 19.5083 43.7957C21.1003 44.5551 22.7512 45.198 24.5634 45.2563C25.2053 45.2771 25.4114 45.0197 25.4027 44.3775C25.3696 41.9395 25.3894 39.5009 25.3894 37.0625M45.1476 25.2486C48.2939 25.2486 51.4403 25.2378 54.5865 25.2577C55.2323 25.2617 55.4251 25.1569 55.0867 24.4982C54.6379 23.6246 54.202 22.7245 53.9246 21.7878C53.2756 19.5957 52.5316 17.4622 51.4556 15.4242C49.7964 12.2819 47.7229 9.50783 44.8346 7.4037C42.8191 5.93547 40.6445 4.7796 38.2856 3.88214C36.4727 3.19246 34.6275 2.70096 32.7517 2.47031C29.7578 2.10207 26.746 2.19129 23.7467 2.73763C18.9589 3.60994 14.7809 5.62957 11.1782 8.8962C7.89826 11.8702 5.57489 15.4695 4.08346 19.5883C2.9173 22.8087 2.08168 26.1164 2.27762 29.5993C2.35316 30.941 3.09239 32.0405 4.17021 32.162C4.77239 32.2297 5.39841 32.2206 5.99936 32.1403C9.09877 31.7255 12.0394 30.684 14.9698 29.6795C19.6092 28.0895 24.2113 26.4588 29.1314 25.866C31.7876 25.5459 34.4412 25.3259 37.1072 25.2627C39.7858 25.1992 42.4672 25.2488 45.1476 25.2486M27.62 54.5635C27.2578 54.9933 26.8179 55.1084 26.2916 54.8968C25.7267 54.6698 25.5352 54.2247 25.5224 53.654C25.4831 51.8849 25.4251 50.1162 25.3964 48.3471C25.3883 47.8549 25.3228 47.5638 24.7029 47.5031C19.3125 46.9751 15.0512 44.4316 11.7309 40.2216C10.3848 38.5147 9.43578 36.5979 8.70794 34.5734C8.49115 33.97 8.21723 33.9396 7.69321 34.0896C6.01391 34.5704 4.3311 34.7304 2.65968 34.0243C1.44165 33.5096 0.744654 32.5595 0.389059 31.3365C-0.181575 29.3736 -0.0312049 27.3957 0.24938 25.4031C0.787066 21.5854 2.02034 18.0008 3.86351 14.6301C6.36302 10.0592 9.81784 6.37442 14.3512 3.74019C17.734 1.77452 21.4044 0.800062 25.2828 0.26735C29.1046 -0.257679 32.856 0.00195456 36.4974 0.946204C42.9523 2.61977 48.2475 6.10763 51.9436 11.792C53.777 14.6115 55.046 17.6623 56.0331 20.8566C56.426 22.1281 56.9614 23.3652 57.7557 24.45C58.7047 25.7464 60.0261 26.3931 61.6362 26.4425C62.0437 26.4551 62.452 26.4472 62.8598 26.4436C63.4964 26.4376 63.9401 26.6781 63.9948 27.3651C64.0467 28.0185 63.7091 28.3539 63.0847 28.5404C61.7818 28.9294 60.5296 28.5938 59.32 28.2413C57.8801 27.8215 56.4314 27.6454 54.9482 27.6183C54.7155 27.4699 54.4656 27.4791 54.2102 27.5376C53.8066 27.5362 53.4028 27.5347 52.9992 27.5329C52.9347 27.5292 52.8702 27.5259 52.8057 27.5224C52.6941 27.5224 52.5823 27.5224 52.4705 27.5223C51.9389 27.5176 51.4075 27.5128 50.876 27.5081C46.3461 27.5174 41.8165 27.5266 37.2868 27.5359C35.1208 27.6387 32.9553 27.7496 30.7888 27.8407C29.8302 27.8809 28.8927 28.0209 27.9772 28.3055C27.8172 28.4239 27.8026 28.5973 27.8033 28.7733C27.8238 33.6168 27.845 38.4604 27.8662 43.3039C28.0177 46.5572 27.9414 49.8127 27.9639 53.0673C27.9668 53.4973 28.008 53.9349 27.8126 54.3429C27.8128 54.3429 27.8075 54.351 27.8075 54.351C27.766 54.3985 27.7245 54.446 27.6835 54.4935C27.6572 54.5116 27.6358 54.535 27.62 54.5635" fill="#FCFDFC"/>
<path fill-rule="evenodd" clip-rule="evenodd" d="M52.95 27.997C52.9833 27.999 53.0166 28.0009 53.05 28.003C53.0166 28.0011 52.9833 27.999 52.95 27.997" fill="#CFD2D1"/>
<path fill-rule="evenodd" clip-rule="evenodd" d="M27.9985 54.0023C27.9985 54.0023 28.0014 53.9977 28.0013 53.9977C28.0013 53.9978 27.9985 54.0023 27.9985 54.0023" fill="#E3E4E2"/>
<path fill-rule="evenodd" clip-rule="evenodd" d="M27.9819 54.0201C27.9909 54.0038 28.0031 53.9904 28.0181 53.9799C28.0178 54.0037 28.0059 54.0171 27.9819 54.0201" fill="#E3E4E2"/>
</svg>
