<svg width="63" height="69" viewBox="0 0 63 69" fill="none" xmlns="http://www.w3.org/2000/svg">
<mask id="mask0_0_301" style="mask-type:luminance" maskUnits="userSpaceOnUse" x="0" y="0" width="63" height="69">
<path fill-rule="evenodd" clip-rule="evenodd" d="M0 0H63V69H0V0Z" fill="white"/>
</mask>
<g mask="url(#mask0_0_301)">
<path fill-rule="evenodd" clip-rule="evenodd" d="M4.1755 47.2743C6.83544 33.4741 9.26513 19.6599 22.8959 11.5712C14.7822 12.8129 9.31775 17.7525 5.53562 24.5986C1.53462 31.8413 1.02291 39.472 4.1755 47.2743M42.8845 69C41.4725 68.9976 41.455 67.9227 41.1868 67.1463C39.7302 62.9279 37.8425 58.9089 35.6203 55.0382C32.9626 50.4082 31.2373 45.4957 31.239 40.1109C31.2396 38.4256 30.3235 37.3589 29.3064 36.1839C28.0632 34.7476 26.2754 33.4389 26.7968 31.1104C28.3111 30.8246 28.5667 31.8724 29.0078 32.5571C30.8806 35.4653 33.4131 36.9573 36.9965 37.1212C42.7571 37.3846 48.4035 38.1409 53.0698 42.1588C54.6255 43.4986 56.6584 43.1958 58.2798 41.8543C60.2835 40.1964 61.3045 38.1192 60.5025 35.479C59.9622 33.699 58.7026 32.4255 57.286 31.3067C51.9512 27.0942 46.7209 22.8177 42.962 17.0122C41.4262 14.6403 38.972 13.1224 36.0937 12.7058C33.9338 12.3931 32.7754 11.2665 32.1378 9.2958C31.4146 7.06001 30.1424 5.13012 28.4121 3.51464C27.1955 2.37869 26.3483 2.65282 25.9174 4.22108C25.3639 6.23465 25.3008 8.28138 25.8865 10.2807C26.3709 11.9342 25.9585 12.9266 24.3218 13.6551C17.5745 16.6581 13.7763 22.2615 11.1765 28.797C8.6265 35.207 7.52232 41.9703 6.54593 48.752C6.43229 49.5419 6.36062 50.3535 6.11569 51.106C5.57374 52.7725 4.66885 52.7633 3.67026 51.4612C3.29439 50.9711 3.0145 50.402 2.73425 49.8473C-2.33545 39.8102 -0.153129 26.2674 7.60763 18.0341C11.4525 13.9554 15.8811 10.9866 21.2876 9.50241C22.9391 9.04893 23.584 8.11211 23.7139 6.4718C23.8321 4.98046 24.097 3.45718 24.5888 2.04795C25.3837 -0.229337 26.7772 -0.588718 28.7032 0.876582C31.1222 2.71706 32.5021 5.35165 33.8196 7.96922C34.6393 9.59789 35.7065 10.6295 37.5173 11.1134C41.1255 12.0774 43.8125 14.2046 45.8141 17.4274C47.9887 20.9288 51.0876 23.691 54.3096 26.2542C56.8986 28.3138 59.5758 30.2699 61.5539 32.9606C63.3085 35.3474 63.463 37.9101 62.0361 40.4838C60.6365 43.0085 58.719 44.8875 55.568 45.0361C53.739 45.1222 52.2663 44.4102 50.9516 43.2342C46.185 38.97 40.2346 39.2634 34.4304 39.0886C33.0289 39.0464 33.0478 40.198 33.1399 41.2289C33.4929 45.1863 34.8701 48.8243 36.5753 52.3798C38.6519 56.7095 41.2206 60.8099 42.8232 65.3567C43.233 66.5201 44.0158 67.8085 42.8845 69" fill="#FDFDFD"/>
</g>
</svg>
